{
	"asset":{
		"generator":"Khronos glTF Blender I/O v4.1.62",
		"version":"2.0"
	},
	"scene":0,
	"scenes":[
		{
			"name":"Scene",
			"nodes":[
				5,
				6
			]
		}
	],
	"nodes":[
		{
			"mesh":0,
			"name":"Cube_Material_0"
		},
		{
			"mesh":1,
			"name":"screen"
		},
		{
			"children":[
				0,
				1
			],
			"name":"Cube.001",
			"rotation":[
				-0.70710688829422,
				0,
				0,
				0.7071066498756409
			],
			"scale":[
				100,
				99.99999237060547,
				99.99999237060547
			],
			"translation":[
				-10.030162811279297,
				0.13394522666931152,
				0
			]
		},
		{
			"children":[
				2
			],
			"name":"RootNode"
		},
		{
			"children":[
				3
			],
			"name":"computer.fbx",
			"rotation":[
				0.70710688829422,
				0,
				0,
				0.7071066498756409
			]
		},
		{
			"children":[
				4
			],
			"name":"Sketchfab_model",
			"rotation":[
				-0.70710688829422,
				0,
				0,
				0.7071066498756409
			]
		},
		{
			"mesh":2,
			"name":"Cube"
		}
	],
	"materials":[
		{
			"doubleSided":true,
			"name":"Material.001",
			"normalTexture":{
				"index":0
			},
			"occlusionTexture":{
				"index":1
			},
			"pbrMetallicRoughness":{
				"baseColorTexture":{
					"index":2
				},
				"metallicRoughnessTexture":{
					"index":1
				}
			}
		},
		{
			"doubleSided":true,
			"name":"Material",
			"pbrMetallicRoughness":{
				"baseColorFactor":[
					0.800000011920929,
					0.800000011920929,
					0.800000011920929,
					1
				],
				"metallicFactor":0,
				"roughnessFactor":0.5
			}
		}
	],
	"meshes":[
		{
			"name":"Cube_Material_0",
			"primitives":[
				{
					"attributes":{
						"POSITION":0,
						"NORMAL":1,
						"TEXCOORD_0":2
					},
					"indices":3,
					"material":0
				}
			]
		},
		{
			"name":"Cube_Material_0.001",
			"primitives":[
				{
					"attributes":{
						"POSITION":4,
						"NORMAL":5,
						"TEXCOORD_0":6
					},
					"indices":7,
					"material":0
				}
			]
		},
		{
			"name":"Cube",
			"primitives":[
				{
					"attributes":{
						"POSITION":8,
						"NORMAL":9,
						"TEXCOORD_0":10
					},
					"indices":11,
					"material":1
				}
			]
		}
	],
	"textures":[
		{
			"sampler":0,
			"source":0
		},
		{
			"sampler":0,
			"source":1
		},
		{
			"sampler":0,
			"source":2
		}
	],
	"images":[
		{
			"mimeType":"image/png",
			"name":"Material_normal",
			"uri":"Material_normal.png"
		},
		{
			"mimeType":"image/png",
			"name":"Material_metallicRoughness",
			"uri":"Material_metallicRoughness.png"
		},
		{
			"mimeType":"image/png",
			"name":"Material_baseColor",
			"uri":"Material_baseColor.png"
		}
	],
	"accessors":[
		{
			"bufferView":0,
			"componentType":5126,
			"count":755,
			"max":[
				0.47237420082092285,
				1,
				0.9325690865516663
			],
			"min":[
				-1.7092454433441162,
				-1,
				-1.3454774618148804
			],
			"type":"VEC3"
		},
		{
			"bufferView":1,
			"componentType":5126,
			"count":755,
			"type":"VEC3"
		},
		{
			"bufferView":2,
			"componentType":5126,
			"count":755,
			"type":"VEC2"
		},
		{
			"bufferView":3,
			"componentType":5123,
			"count":3168,
			"type":"SCALAR"
		},
		{
			"bufferView":4,
			"componentType":5126,
			"count":36,
			"max":[
				0.41745761036872864,
				0.7878721356391907,
				0.7417690753936768
			],
			"min":[
				0.2004011869430542,
				-0.7878720760345459,
				-0.7012656927108765
			],
			"type":"VEC3"
		},
		{
			"bufferView":5,
			"componentType":5126,
			"count":36,
			"type":"VEC3"
		},
		{
			"bufferView":6,
			"componentType":5126,
			"count":36,
			"type":"VEC2"
		},
		{
			"bufferView":7,
			"componentType":5123,
			"count":150,
			"type":"SCALAR"
		},
		{
			"bufferView":8,
			"componentType":5126,
			"count":24,
			"max":[
				1,
				1,
				1
			],
			"min":[
				-1,
				-1,
				-1
			],
			"type":"VEC3"
		},
		{
			"bufferView":9,
			"componentType":5126,
			"count":24,
			"type":"VEC3"
		},
		{
			"bufferView":10,
			"componentType":5126,
			"count":24,
			"type":"VEC2"
		},
		{
			"bufferView":11,
			"componentType":5123,
			"count":36,
			"type":"SCALAR"
		}
	],
	"bufferViews":[
		{
			"buffer":0,
			"byteLength":9060,
			"byteOffset":0,
			"target":34962
		},
		{
			"buffer":0,
			"byteLength":9060,
			"byteOffset":9060,
			"target":34962
		},
		{
			"buffer":0,
			"byteLength":6040,
			"byteOffset":18120,
			"target":34962
		},
		{
			"buffer":0,
			"byteLength":6336,
			"byteOffset":24160,
			"target":34963
		},
		{
			"buffer":0,
			"byteLength":432,
			"byteOffset":30496,
			"target":34962
		},
		{
			"buffer":0,
			"byteLength":432,
			"byteOffset":30928,
			"target":34962
		},
		{
			"buffer":0,
			"byteLength":288,
			"byteOffset":31360,
			"target":34962
		},
		{
			"buffer":0,
			"byteLength":300,
			"byteOffset":31648,
			"target":34963
		},
		{
			"buffer":0,
			"byteLength":288,
			"byteOffset":31948,
			"target":34962
		},
		{
			"buffer":0,
			"byteLength":288,
			"byteOffset":32236,
			"target":34962
		},
		{
			"buffer":0,
			"byteLength":192,
			"byteOffset":32524,
			"target":34962
		},
		{
			"buffer":0,
			"byteLength":72,
			"byteOffset":32716,
			"target":34963
		}
	],
	"samplers":[
		{
			"magFilter":9729,
			"minFilter":9987
		}
	],
	"buffers":[
		{
			"byteLength":32788,
			"uri":"scene.bin"
		}
	]
}
